<svg xmlns="http://www.w3.org/2000/svg" width="630" height="630" viewBox="0 0 630 630"><title>fuzzy-wuzzy</title><g id="fuzzywuzzy"><g id="bear-fill"><path d="M413.3,228.3a24.9,24.9,0,0,0-19.5,9.3,119.9,119.9,0,0,1,27.8,39.5,25.1,25.1,0,0,0-8.4-48.8Zm9.1,25.1a9.1,9.1,0,0,0-9.1-9.1V234.1a19.3,19.3,0,0,1,19.2,19.2Z" fill="#f49aa9"/><path d="M216.7,212.8a25.1,25.1,0,0,0-6.4,49.3,119.8,119.8,0,0,1,29.9-33A25.1,25.1,0,0,0,216.7,212.8Zm6.5,18.6a9.1,9.1,0,1,0-12.9,12.9l-7.2,7.2a19.3,19.3,0,1,1,27.2-27.2Z" fill="#f49aa9"/><path d="M342.5,219.5A24.1,24.1,0,0,0,336,229a54.6,54.6,0,0,0-47.1-.3,24.5,24.5,0,0,0-5.6-9.6,108.9,108.9,0,0,1,59.4.5Z" fill="#f49aa9"/><path d="M415.2,288.6a102.7,102.7,0,0,0-4.1-10.2A109.8,109.8,0,0,0,389,247c-1.8-1.8-3.7-3.6-5.7-5.2a24.1,24.1,0,0,1-5.4,12,25,25,0,0,1-13.6,8.3,53.6,53.6,0,0,1,2.5,16.2H356.7a43.8,43.8,0,0,0-3-16.2,45,45,0,0,0-19.3-22.5,34.3,34.3,0,0,0-5.8-2.8l.2.3.4.7.4.7.2.3.3.6v.2l.2.3.2.3h0l.2.5.5,1.3.4,1.4h0a18.7,18.7,0,0,1,.4,2,23.1,23.1,0,0,1,.3,2.8s0,0,0,0,0,.5,0,.8a22.2,22.2,0,0,1-2.7,10.6l-1.1,1.8-.6.9-1,1.3-1.1,1.2a20.8,20.8,0,0,1-2.4,2.1l-.9.7h-.1l-.2.2-.3.2-.8.5h0l-.6.3h-.7l-.4.2-.5.2h-.3l-1.8.6-1.1.3-1.1.3a21.7,21.7,0,0,1-4.4.4,22,22,0,0,1-7.6-1.3l-1.6-.6-1.5-.7-.8-.5-.8-.5h-.3l-.3-.2H297l-.3-.2h-.1l-.5-.4-.2-.2-.3-.2h-.1l-.3-.3-.3-.3-.3-.3h-.2l-.6-.6-.2-.2-.9-1h0l-.9-1.1h0a22,22,0,0,1-4-12.6,20.6,20.6,0,0,1,.4-4.2,16,16,0,0,1,.6-2.4l.2-.6.2-.5.3-.8v-.2l.4-.9-.4.3a44.6,44.6,0,0,0-18.2,20.3,44,44,0,0,0-4,18.3H257.3a55,55,0,0,1,3-18,24.1,24.1,0,0,1-12.2-6.4,23.8,23.8,0,0,1-6.8-11.3,3.1,3.1,0,0,1-.3-1,107.1,107.1,0,0,0-18.8,20.9,109.2,109.2,0,1,0,192.9,26.3Z" fill="#f49aa9"/><circle cx="225.1" cy="335.2" r="5.3" fill="#f49aa9"/><circle cx="235.8" cy="354" r="5.3" fill="#f49aa9"/><circle cx="241.1" cy="335.2" r="5.3" fill="#f49aa9"/><path d="M342.2,269.6v10.1h-2.3a18.3,18.3,0,0,1-17,25.4h-.7a18.4,18.4,0,0,1-5.6,13.4,18.1,18.1,0,0,1-12.8,5.2,17.6,17.6,0,0,1-6.3-1.1c0,.6,0,1.2,0,1.8H287.4A54.8,54.8,0,0,1,342.2,269.6Z" fill="#f49aa9"/><circle cx="344.8" cy="398.5" r="5.3" fill="#f49aa9"/><path d="M312.1,375.2a54.6,54.6,0,0,1-9.9-.9v11.8h-6V372.8l-4.8-1.7-4,10-5.6-2.2,4.2-10.3a54.9,54.9,0,0,1-12.6-9.4l7.2-7.2a44.7,44.7,0,0,0,63.2,0l7.1,7.2A54.6,54.6,0,0,1,312.1,375.2Z" fill="#f49aa9"/><circle cx="388.5" cy="335.2" r="5.3" fill="#f49aa9"/></g><g id="bear-whites"><path d="M279.6,234.2a48.9,48.9,0,0,0-5,4.1l-2.3-2.3,3.8-3.9-7.2-7.2-3.9,3.9-3.9-3.9-7.2,7.2L258,236l-3.9,3.8,7.2,7.2,3.9-3.8,2.7,2.7a51.8,51.8,0,0,0-3,4.7,14.6,14.6,0,0,1-13.1-8.8h0a14,14,0,0,1-1.2-5.7,10.7,10.7,0,0,1,.2-2,12,12,0,0,1,.6-2.7,14.6,14.6,0,0,1,13.8-10,14.1,14.1,0,0,1,6.5,1.5A14.6,14.6,0,0,1,279.6,234.2Z" fill="#fff"/><path d="M373.5,237.9a14.6,14.6,0,0,1-13.1,14.5,52.4,52.4,0,0,0-3.8-6.1,9.1,9.1,0,0,0,2.4.3,8.7,8.7,0,1,0-8.7-8.7,10,10,0,0,0,.1,1.1,55.6,55.6,0,0,0-5.5-4.7,14.6,14.6,0,0,1,28.1-.6A14.3,14.3,0,0,1,373.5,237.9Z" fill="#fff"/><path d="M325.4,244.7a15.7,15.7,0,0,0-26.2,11.7,15.2,15.2,0,0,0,.6,4.3,15.7,15.7,0,0,1,4.9-26.5h.1a15.6,15.6,0,0,1,8.9-.6h0A15.7,15.7,0,0,1,325.4,244.7Z" fill="#fff"/><path d="M331.1,286.9a8.1,8.1,0,0,1-2.5,5.8,7.5,7.5,0,0,1-5.9,2.3,8.2,8.2,0,0,1-5.8-2.5l-7.3,7.1a8.2,8.2,0,0,1-.2,11.6,8.3,8.3,0,0,1-10.4.9,44.7,44.7,0,0,1,30.1-30.6A7.9,7.9,0,0,1,331.1,286.9Z" fill="#fff"/></g><g id="bear-stroke"><path d="M448.6,253.4a35.2,35.2,0,0,0-62.4-22.5l-5-3.8A24.6,24.6,0,0,0,359,213.2l-3,.2a117.5,117.5,0,0,0-43.9-8.4,118.8,118.8,0,0,0-40.5,7.1,23.6,23.6,0,0,0-6.4-.8,24.6,24.6,0,0,0-18.4,8.3,35.3,35.3,0,1,0-41.5,51.7,118.3,118.3,0,0,0-12.5,53.1c0,65.8,53.5,119.3,119.3,119.3A119.5,119.5,0,0,0,431.4,324.4a117.5,117.5,0,0,0-6.2-37.8A35.3,35.3,0,0,0,448.6,253.4Zm-93.6-29.5a14.6,14.6,0,0,1,18,9.8,14.3,14.3,0,0,1,.6,4.2,14.6,14.6,0,0,1-13.1,14.5,52.4,52.4,0,0,0-3.8-6.1,9.1,9.1,0,0,0,2.4.3,8.7,8.7,0,1,0-8.7-8.7,10,10,0,0,0,.1,1.1,55.6,55.6,0,0,0-5.5-4.7A14.5,14.5,0,0,1,354.9,223.9Zm-42.8-8.8a107.5,107.5,0,0,1,30.5,4.3A24.1,24.1,0,0,0,336,229a54.6,54.6,0,0,0-47.1-.3,24.5,24.5,0,0,0-5.6-9.6A107.8,107.8,0,0,1,312.1,215.2Zm-12.2,45.6a15.7,15.7,0,0,1,4.9-26.5h.1a15.6,15.6,0,0,1,8.9-.6h0a15.7,15.7,0,0,1,11.6,11,15.7,15.7,0,0,0-26.2,11.7A15.2,15.2,0,0,0,299.9,260.7Zm-49.1-26.7a12,12,0,0,1,.6-2.7,14.6,14.6,0,0,1,13.8-10,14.1,14.1,0,0,1,6.5,1.5,14.6,14.6,0,0,1,8,11.2,48.9,48.9,0,0,0-5,4.1l-2.3-2.3,3.8-3.9-7.2-7.2-3.9,3.9-3.9-3.9-7.2,7.2L258,236l-3.9,3.8,7.2,7.2,3.9-3.8,2.7,2.7a51.8,51.8,0,0,0-3,4.7,14.6,14.6,0,0,1-13.1-8.8h0a14,14,0,0,1-1.2-5.7A10.7,10.7,0,0,1,250.8,234.1Zm-59.1,3.9a25.1,25.1,0,0,1,48.6-8.8,119.8,119.8,0,0,0-29.9,33A25,25,0,0,1,191.6,237.9ZM312.1,433.5a109,109,0,0,1-89.8-171.1,107.1,107.1,0,0,1,18.8-20.9,3.1,3.1,0,0,0,.3,1,23.8,23.8,0,0,0,6.8,11.3,24.1,24.1,0,0,0,12.2,6.4,55,55,0,0,0-3,18h10.1a44,44,0,0,1,4-18.3,44.6,44.6,0,0,1,18.2-20.2l.4-.3-.4.9v.6h0l-.2.5-.2.5-.2.6a16,16,0,0,0-.6,2.4,20.6,20.6,0,0,0-.4,4.2,22,22,0,0,0,4,12.6h0l.9,1.1h0l.9,1,.2.2.6.6h.2l.3.3.3.3.3.3h.1l.3.2.2.2.5.4h.1l.3.2h.1l.3.2h.3l.8.5.8.5,1.5.8,1.6.6a22,22,0,0,0,7.6,1.3,21.7,21.7,0,0,0,4.4-.4l1.1-.2,1.1-.3,1.8-.6h.3l.5-.2.3-.2h.8l.6-.3h0l.8-.5.3-.2.2-.2h.1l.9-.7a20.8,20.8,0,0,0,2.4-2.1l1.1-1.2,1-1.2.6-.9,1.1-1.8a22.3,22.3,0,0,0,2.7-10.6c0-.3,0-.5,0-.8s0,0,0,0a23.1,23.1,0,0,0-.3-2.8,18.7,18.7,0,0,0-.4-2h0l-.4-1.4-.5-1.3-.2-.5h0l-.2-.3-.2-.3v-.2l-.3-.6-.2-.3-.4-.7-.4-.7-.2-.3a34.3,34.3,0,0,1,5.8,2.8,45,45,0,0,1,19.3,22.5,43.8,43.8,0,0,1,3,16.2h10.2a53.6,53.6,0,0,0-2.5-16.2,25,25,0,0,0,13.6-8.3,24.1,24.1,0,0,0,5.4-12c1.9,1.7,3.8,3.4,5.7,5.2a109.8,109.8,0,0,1,22.1,31.5,102.7,102.7,0,0,1,4.1,10.2,107.6,107.6,0,0,1,6,35.7A109.3,109.3,0,0,1,312.1,433.5ZM421.7,277.1a119.9,119.9,0,0,0-27.8-39.5,25.1,25.1,0,1,1,27.8,39.5Z" fill="#ed2e53"/><path d="M432.5,253.4H422.4a9.1,9.1,0,0,0-9.1-9.1V234.1A19.3,19.3,0,0,1,432.5,253.4Z" fill="#ed2e53"/><path d="M288.5,193.5l-7.1-7.2a18,18,0,0,1-25.4,0l-7.1,7.2a28.1,28.1,0,0,0,39.7,0Z" fill="#ed2e53"/><path d="M375.3,193.5l-7.2-7.2a18,18,0,0,1-25.4,0l-7.2,7.2a28.2,28.2,0,0,0,39.7,0Z" fill="#ed2e53"/><path d="M230.4,224.2l-7.2,7.2a9.1,9.1,0,1,0-12.9,12.9l-7.2,7.2a19.3,19.3,0,1,1,27.2-27.2Z" fill="#ed2e53"/><path d="M350.8,359.2a54.8,54.8,0,0,1-48.6,15.1v11.8h-6V372.8l-4.8-1.7-4,10-5.6-2.2,4.2-10.3a54.9,54.9,0,0,1-12.6-9.4l7.2-7.2a44.7,44.7,0,0,0,63.2,0Z" fill="#ed2e53"/><path d="M342.2,269.6a54.8,54.8,0,0,0-54.8,54.8h10.1c0-.6,0-1.2,0-1.8a17.6,17.6,0,0,0,6.3,1.1,18.1,18.1,0,0,0,12.8-5.2,18.4,18.4,0,0,0,5.6-13.4h.7a18.3,18.3,0,0,0,17-25.4h2.3Zm-13.5,23.1a7.5,7.5,0,0,1-5.9,2.3,8.2,8.2,0,0,1-5.8-2.5l-7.3,7.1a8.2,8.2,0,0,1-.2,11.6,8.3,8.3,0,0,1-10.4.9,44.7,44.7,0,0,1,30.1-30.6,7.9,7.9,0,0,1,1.9,5.3A8.1,8.1,0,0,1,328.7,292.7Z" fill="#ed2e53"/><circle id="spot5" cx="241.1" cy="335.2" r="5.3" fill="#ed2e53"/><circle id="spot1" cx="225.1" cy="335.2" r="5.3" fill="#ed2e53"/><circle id="spot2" cx="235.8" cy="354" r="5.3" fill="#ed2e53"/><circle id="spot3" cx="344.8" cy="398.5" r="5.3" fill="#ed2e53"/><circle id="spot4" cx="388.5" cy="335.2" r="5.3" fill="#ed2e53"/></g></g></svg>