<svg id="ladyface" xmlns="http://www.w3.org/2000/svg" width="17in" height="11in" viewBox="0 0 1224 792"><title>ladyface</title><rect id="bg" width="1224" height="792" fill="#231f20"/><path id="face" d="M886.7,601.5,907,792H339L316.2,661,199,341,217,0H879V43l16.4,51.7L931,207,874.8,369.1,865,397.5l21.7,204Z" fill="#edaba6"/><polygon id="mouth-bg" points="675.4 445.6 732.5 403.7 637 362.6 479.5 368.1 383.3 382.4 316.2 393.5 415.9 485.4 675.4 445.6" fill="#90351e"/><g id="teeth"><path d="M499.8,387.5v58.2s-35.7,7.1-55.1-12.2l5.1-60.2Z" fill="#d3cbbd"/><path d="M428.7,377.1l9,57.5s-22,10.7-37.6-6.5l-6.1-60Z" fill="#d3cbbd"/><path d="M619.5,367.7l9,57.5s-22,10.7-37.6-6.5l-6.1-60Z" fill="#d3cbbd"/><path d="M671.5,371.6l9,57.5s-22,10.7-37.6-6.5l-6.1-60Z" fill="#d3cbbd"/><path d="M383.3,382.4l4.6,29s-22.5,7.2-36.6-.5l-1.4-30.6Z" fill="#d3cbbd"/><path d="M507,387.4l4.1,58.2s46.4-1.5,58.2-13.3V368Z" fill="#d3cbbd"/></g><polygon id="upper" points="316.2 393.5 410.1 348.6 444.8 339.4 473.3 347.6 517.2 347.6 535.6 332.3 608 332.3 707 374.1 732.5 403.7 626.4 372.1 545.8 382.3 514.2 403.7 465.2 403.7 433.4 385.4 316.2 393.5" fill="#ee3b24"/><polygon id="bottom" points="316.2 393.5 431.6 460.2 617.2 448.6 732.5 403.7 699.9 474.1 556 531.3 443.8 540.9 349.7 486.6 316.2 393.5" fill="#ee3b24"/><polygon id="light" points="429 472.2 425.7 483.7 420.3 502 429 490.4 438.6 518 462.3 481.3 479.7 512 498.3 472.2 513 499.3 538.1 476 555.7 500.7 565 472.2 584.9 483.7 591.7 469.3 628.5 480.7 584.9 461.3 581 472.2 562.2 461.3 551 482 538.1 466 518.3 483.3 493.8 464.7 480.3 490.4 463.7 472.2 437.7 500.7 437.7 484.7 429 472.2" fill="#edaba6"/><g id="nostrils"><circle cx="438.6" cy="257.1" r="15.2" fill="#90351e"/><circle cx="516" cy="257.1" r="22.1" fill="#90351e"/></g><g id="eyes"><path id="right-eye" d="M790.6,89.3l-6.2,6.4-6.1,6.5-4.7,5.1q-13.8-1-27.6-1.6c-9.7-.4-19.4-.7-29.1-.9l-14.5-.2H673.3l-12.6.2-7.6-5.5-9.5-6.7-9.6-6.6-9.6-6.5q-9.7-6.4-19.5-12.6c-6.6-4.1-13.2-8.1-20-12,5.5,5.5,11.2,10.8,16.9,16s11.5,10.3,17.4,15.4l8.8,7.5,2.5,2.1L637,153l5.3-47.4,3.8,3.1,9.1,7.2,1.5,1.2h2.2l14.5.2h1.4l5.8,52.6,5.8-52.5h15.9l14.5-.2,9.7-.3,5.9,53,5.9-53.4,7.5-.3q14.5-.6,29.1-1.7h2l.8-1.2,4.9-7.4,4.9-7.5,4.8-7.6L797,83Z" fill="#231f20"/><path id="left-eye" d="M427.7,65.6l-10.8,7.7-10.2,7.4c-7.6,2.3-15.2,4.6-22.8,7.2l-11.4,3.9L361.2,96,350,100.3l-11.2,4.5-5.6,2.3-5.6,2.3-9.1,3.9-7.7-2.7-10.1-3.4-10.1-3.3-10.2-3.2q-10.2-3.2-20.5-6.1c-6.9-1.9-13.8-3.8-20.7-5.4,6.3,3.5,12.6,6.7,19,9.9l16.4,7.8L281,164l5.7-51.6.5.2,9.7,4.3,9.8,4.2,9.8,4.1,2,.8,2.4-.9,11.3-4.2,5.6-2.1,5.6-2.2h.3l5.9,53.4,6.5-58.3,9.6-4,11.1-4.8,11-5,.5-.2,5.7,51.3,6.3-57.1,9.2-4.6.7-.4.2-.2,9.9-8.9,9.8-9,9.7-9.1,9.6-9.2-11,7.5Z" fill="#231f20"/></g><polygon id="eyebrow-r" points="584.9 -1 713 43 841 43 713 2 584.9 -1" fill="#231f20"/><polygon id="eyebrow-l" points="449.7 -1 302.4 43 155.2 43 302.4 2 449.7 -1" fill="#231f20"/><g id="shadows"><polygon id="shadow" points="931 207 874.8 369.1 841 279.2 895.4 94.7 931 207" fill="#bf6c6a"/><polygon id="noseshadow" points="475 0 453.9 172 403 230 420.3 156 475 0" fill="#bf6c6a"/><polygon id="chin_shadow" data-name="chin shadow" points="403 621 516 653 680.6 589 507 689.2 449.7 679 403 621" fill="#bf6c6a"/><polygon points="516 170 553 211 553 170 516 170" fill="#bf6c6a"/><path d="M907,792H801.3c70.8-73.8,85.2-189.1,85.4-190.5Z" fill="#bf6c6a"/></g></svg>