<svg id="thingy" xmlns="http://www.w3.org/2000/svg" width="630.6" height="609.6" viewBox="0 0 630.6 609.6"><title>thingy</title><path id="blue-whole" d="M411.3,302.8a74.5,74.5,0,0,0,49.9-70.2h0a74.4,74.4,0,0,0-73.5-74.3h-149a74.4,74.4,0,0,0-73.5,74.3h0a74.5,74.5,0,0,0,49.9,70.2A74.5,74.5,0,0,0,165.2,373h0a74.4,74.4,0,0,0,73.5,74.3h149A74.4,74.4,0,0,0,461.2,373h0A74.5,74.5,0,0,0,411.3,302.8ZM386.9,166.5a66.1,66.1,0,1,1-65.4,66.1v-32a32.8,32.8,0,0,1,8.3,3.4v28.6h0a57.9,57.9,0,0,0,57.2,57.8h.7a57.9,57.9,0,0,0,57.2-57.8h0a57.9,57.9,0,0,0-57-57.8H359.9a74.6,74.6,0,0,0-12.6-8.3ZM338,287.9a74.4,74.4,0,0,0,25.1,14.9A74.4,74.4,0,0,0,338,317.6a28.8,28.8,0,0,0,0-29.7Zm49.7,126.4h0a41.1,41.1,0,0,0,23.7-8.1h.2V406a41.3,41.3,0,0,0,16.5-33h0a41.1,41.1,0,0,0-8.1-24.6v-.2h-.2a41.3,41.3,0,0,0-32.4-16.5h-.7a41.1,41.1,0,0,0-23.9,8.1h-.2v.2a41.3,41.3,0,0,0-16.5,33h0a32.9,32.9,0,0,1-8.3,21.8V373h0a49.2,49.2,0,1,1,48.9,49.6H368.6a74.8,74.8,0,0,0,6.4-8.3Zm-7.9-8.3a73.7,73.7,0,0,0,7.1-23.1V406Zm35.7-49.6a32.8,32.8,0,0,1,3.4,8.3H387.5v-8.3Zm-27.9-8.3v-8.2a32.9,32.9,0,0,1,21.2,8.2ZM419.9,373a32.9,32.9,0,0,1-8.3,21.8V373Zm-16.5,0v28.6a32.8,32.8,0,0,1-8.3,3.4V373Zm-48.9,0h0a32.9,32.9,0,0,1,8.3-21.8V373h0a49.6,49.6,0,0,1-99.1,0h0V351.1a32.9,32.9,0,0,1,8.3,21.8h0a41.3,41.3,0,0,0,16.5,33v.2h.2a41.2,41.2,0,0,0,49.1,0h.2V406A41.3,41.3,0,0,0,354.5,373Zm-115-41.3h-.7a41.3,41.3,0,0,0-32.4,16.5h-.2v.2a41.1,41.1,0,0,0-8.1,24.6h0a41.3,41.3,0,0,0,16.5,33v.2h.2a41.1,41.1,0,0,0,23.7,8.1h12.7a74.8,74.8,0,0,0,6.4,8.3H239.5A49.6,49.6,0,1,1,288.4,373h0v21.8a32.9,32.9,0,0,1-8.3-21.8h0a41.3,41.3,0,0,0-16.5-33v-.2h-.2A41.1,41.1,0,0,0,239.5,331.7Zm7.1,74.3h-7.1V382.9A73.7,73.7,0,0,0,246.6,406Zm-39.1-41.3a32.8,32.8,0,0,1,3.4-8.3h27.9v8.3Zm23.7,8.3v32a32.8,32.8,0,0,1-8.3-3.4V373Zm-16.5,0v21.8a32.9,32.9,0,0,1-8.3-21.8Zm3-24.8a32.9,32.9,0,0,1,21.2-8.2v8.2ZM297,326.7a28.8,28.8,0,0,0,32.5,0A74,74,0,0,0,313.2,373,74,74,0,0,0,297,326.7Zm16.2-3.3a20.7,20.7,0,1,1,20.7-20.7A20.7,20.7,0,0,1,313.2,323.4ZM238.7,191.2h0a41.1,41.1,0,0,0-23.7,8.1h-.2v.2a41.3,41.3,0,0,0-16.5,33h0a41.1,41.1,0,0,0,8.1,24.6v.2h.2a41.3,41.3,0,0,0,32.4,16.5h.7a41.1,41.1,0,0,0,23.9-8.1h.2v-.2a41.3,41.3,0,0,0,16.5-33h0a32.9,32.9,0,0,1,8.3-21.8v21.8h0A49.2,49.2,0,1,1,239.5,183h18.3a74.8,74.8,0,0,0-6.4,8.3Zm7.9,8.3a73.7,73.7,0,0,0-7.1,23.1V199.5Zm-35.7,49.6a32.8,32.8,0,0,1-3.4-8.3h31.3v8.3Zm27.9,8.3v8.2a32.9,32.9,0,0,1-21.2-8.2Zm-32.4-24.8a32.9,32.9,0,0,1,8.3-21.8v21.8Zm16.5,0V204a32.8,32.8,0,0,1,8.3-3.4v32Zm48.9,0h0a32.9,32.9,0,0,1-8.3,21.8V232.5h0a49.6,49.6,0,0,1,99.1,0h0v21.8a32.9,32.9,0,0,1-8.3-21.8h0a41.3,41.3,0,0,0-16.5-33v-.2h-.2a41.2,41.2,0,0,0-49.1,0h-.2v.2A41.3,41.3,0,0,0,271.9,232.5Zm115,41.3h.7a41.3,41.3,0,0,0,32.4-16.5h.2v-.2a41.1,41.1,0,0,0,8.1-24.6h0a41.3,41.3,0,0,0-16.5-33v-.2h-.2a41.1,41.1,0,0,0-23.7-8.1H375a74.9,74.9,0,0,0-6.4-8.3h18.3A49.6,49.6,0,1,1,338,232.5h0V210.7a32.9,32.9,0,0,1,8.3,21.8h0a41.3,41.3,0,0,0,16.5,33v.2h.2A41.1,41.1,0,0,0,386.9,273.8Zm-7.1-74.3h7.1v23.1A73.7,73.7,0,0,0,379.8,199.5Zm39.1,41.3a32.8,32.8,0,0,1-3.4,8.3H387.5v-8.3Zm-23.7-8.3v-32a32.8,32.8,0,0,1,8.3,3.4v28.6Zm16.5,0V210.7a32.9,32.9,0,0,1,8.3,21.8Zm-3,24.8a32.9,32.9,0,0,1-21.2,8.2v-8.2Zm-79.3,21.5a28.8,28.8,0,0,0-32.5,0,74,74,0,0,0,16.2-46.3A74,74,0,0,0,329.4,278.8ZM313.2,166.5a66.2,66.2,0,0,1,66.1,66.1v32a32.8,32.8,0,0,1-8.3-3.4V232.5h0a57.8,57.8,0,0,0-115.6,0h0v28.6a32.8,32.8,0,0,1-8.3,3.4v-32A66.2,66.2,0,0,1,313.2,166.5ZM173.4,232.5a66.2,66.2,0,0,1,66.1-66.1h39.6a74.6,74.6,0,0,0-12.6,8.3H238.7a57.9,57.9,0,0,0-57,57.8h0a57.9,57.9,0,0,0,57.2,57.8h.7a57.9,57.9,0,0,0,57.2-57.8h0V204a32.8,32.8,0,0,1,8.3-3.4v32a65.8,65.8,0,1,1-131.5,0Zm115,85.1a74.4,74.4,0,0,0-25.1-14.9,74.4,74.4,0,0,0,25.1-14.9,28.8,28.8,0,0,0,0,29.7ZM239.5,439A66.1,66.1,0,1,1,304.9,373v32a32.8,32.8,0,0,1-8.3-3.4V373h0a57.9,57.9,0,0,0-57.2-57.8h-.7A57.9,57.9,0,0,0,181.7,373h0a57.9,57.9,0,0,0,57,57.8h27.8a74.6,74.6,0,0,0,12.6,8.3Zm73.7,0A66.2,66.2,0,0,1,247.1,373V341a32.8,32.8,0,0,1,8.3,3.4V373h0A57.8,57.8,0,0,0,371,373h0V344.4a32.8,32.8,0,0,1,8.3-3.4v32A66.2,66.2,0,0,1,313.2,439Zm73.7,0H347.2a74.6,74.6,0,0,0,12.6-8.3h27.8a57.9,57.9,0,0,0,57-57.8h0a57.9,57.9,0,0,0-57.2-57.8h-.7A57.9,57.9,0,0,0,329.7,373h0v28.6a32.8,32.8,0,0,1-8.3,3.4V373A65.8,65.8,0,1,1,386.9,439Z" fill="#384a9e"/><path id="blue-middle" d="M313.2,290.4a12.4,12.4,0,1,0,12.4,12.4A12.4,12.4,0,0,0,313.2,290.4Zm0,16.5a4.1,4.1,0,1,1,4.1-4.1A4.1,4.1,0,0,1,313.2,306.9Z" fill="#384a9e"/><path id="red-whole" d="M411.3,302.8a74.5,74.5,0,0,0,49.9-70.2h0a74.4,74.4,0,0,0-73.5-74.3h-149a74.4,74.4,0,0,0-73.5,74.3h0a74.5,74.5,0,0,0,49.9,70.2A74.5,74.5,0,0,0,165.2,373h0a74.4,74.4,0,0,0,73.5,74.3h149A74.4,74.4,0,0,0,461.2,373h0A74.5,74.5,0,0,0,411.3,302.8ZM386.9,166.5a66.1,66.1,0,1,1-65.4,66.1v-32a32.8,32.8,0,0,1,8.3,3.4v28.6h0a57.9,57.9,0,0,0,57.2,57.8h.7a57.9,57.9,0,0,0,57.2-57.8h0a57.9,57.9,0,0,0-57-57.8H359.9a74.6,74.6,0,0,0-12.6-8.3ZM338,287.9a74.4,74.4,0,0,0,25.1,14.9A74.4,74.4,0,0,0,338,317.6a28.8,28.8,0,0,0,0-29.7Zm49.7,126.4h0a41.1,41.1,0,0,0,23.7-8.1h.2V406a41.3,41.3,0,0,0,16.5-33h0a41.1,41.1,0,0,0-8.1-24.6v-.2h-.2a41.3,41.3,0,0,0-32.4-16.5h-.7a41.1,41.1,0,0,0-23.9,8.1h-.2v.2a41.3,41.3,0,0,0-16.5,33h0a32.9,32.9,0,0,1-8.3,21.8V373h0a49.2,49.2,0,1,1,48.9,49.6H368.6a74.8,74.8,0,0,0,6.4-8.3Zm-7.9-8.3a73.7,73.7,0,0,0,7.1-23.1V406Zm35.7-49.6a32.8,32.8,0,0,1,3.4,8.3H387.5v-8.3Zm-27.9-8.3v-8.2a32.9,32.9,0,0,1,21.2,8.2ZM419.9,373a32.9,32.9,0,0,1-8.3,21.8V373Zm-16.5,0v28.6a32.8,32.8,0,0,1-8.3,3.4V373Zm-48.9,0h0a32.9,32.9,0,0,1,8.3-21.8V373h0a49.6,49.6,0,0,1-99.1,0h0V351.1a32.9,32.9,0,0,1,8.3,21.8h0a41.3,41.3,0,0,0,16.5,33v.2h.2a41.2,41.2,0,0,0,49.1,0h.2V406A41.3,41.3,0,0,0,354.5,373Zm-115-41.3h-.7a41.3,41.3,0,0,0-32.4,16.5h-.2v.2a41.1,41.1,0,0,0-8.1,24.6h0a41.3,41.3,0,0,0,16.5,33v.2h.2a41.1,41.1,0,0,0,23.7,8.1h12.7a74.8,74.8,0,0,0,6.4,8.3H239.5A49.6,49.6,0,1,1,288.4,373h0v21.8a32.9,32.9,0,0,1-8.3-21.8h0a41.3,41.3,0,0,0-16.5-33v-.2h-.2A41.1,41.1,0,0,0,239.5,331.7Zm7.1,74.3h-7.1V382.9A73.7,73.7,0,0,0,246.6,406Zm-39.1-41.3a32.8,32.8,0,0,1,3.4-8.3h27.9v8.3Zm23.7,8.3v32a32.8,32.8,0,0,1-8.3-3.4V373Zm-16.5,0v21.8a32.9,32.9,0,0,1-8.3-21.8Zm3-24.8a32.9,32.9,0,0,1,21.2-8.2v8.2ZM297,326.7a28.8,28.8,0,0,0,32.5,0A74,74,0,0,0,313.2,373,74,74,0,0,0,297,326.7Zm16.2-3.3a20.7,20.7,0,1,1,20.7-20.7A20.7,20.7,0,0,1,313.2,323.4ZM238.7,191.2h0a41.1,41.1,0,0,0-23.7,8.1h-.2v.2a41.3,41.3,0,0,0-16.5,33h0a41.1,41.1,0,0,0,8.1,24.6v.2h.2a41.3,41.3,0,0,0,32.4,16.5h.7a41.1,41.1,0,0,0,23.9-8.1h.2v-.2a41.3,41.3,0,0,0,16.5-33h0a32.9,32.9,0,0,1,8.3-21.8v21.8h0A49.2,49.2,0,1,1,239.5,183h18.3a74.8,74.8,0,0,0-6.4,8.3Zm7.9,8.3a73.7,73.7,0,0,0-7.1,23.1V199.5Zm-35.7,49.6a32.8,32.8,0,0,1-3.4-8.3h31.3v8.3Zm27.9,8.3v8.2a32.9,32.9,0,0,1-21.2-8.2Zm-32.4-24.8a32.9,32.9,0,0,1,8.3-21.8v21.8Zm16.5,0V204a32.8,32.8,0,0,1,8.3-3.4v32Zm48.9,0h0a32.9,32.9,0,0,1-8.3,21.8V232.5h0a49.6,49.6,0,0,1,99.1,0h0v21.8a32.9,32.9,0,0,1-8.3-21.8h0a41.3,41.3,0,0,0-16.5-33v-.2h-.2a41.2,41.2,0,0,0-49.1,0h-.2v.2A41.3,41.3,0,0,0,271.9,232.5Zm115,41.3h.7a41.3,41.3,0,0,0,32.4-16.5h.2v-.2a41.1,41.1,0,0,0,8.1-24.6h0a41.3,41.3,0,0,0-16.5-33v-.2h-.2a41.1,41.1,0,0,0-23.7-8.1H375a74.8,74.8,0,0,0-6.4-8.3h18.3A49.6,49.6,0,1,1,338,232.5h0V210.7a32.9,32.9,0,0,1,8.3,21.8h0a41.3,41.3,0,0,0,16.5,33v.2h.2A41.1,41.1,0,0,0,386.9,273.8Zm-7.1-74.3h7.1v23.1A73.7,73.7,0,0,0,379.8,199.5Zm39.1,41.3a32.8,32.8,0,0,1-3.4,8.3H387.5v-8.3Zm-23.7-8.3v-32a32.8,32.8,0,0,1,8.3,3.4v28.6Zm16.5,0V210.7a32.9,32.9,0,0,1,8.3,21.8Zm-3,24.8a32.9,32.9,0,0,1-21.2,8.2v-8.2Zm-79.3,21.5a28.8,28.8,0,0,0-32.5,0,74,74,0,0,0,16.2-46.3A74,74,0,0,0,329.4,278.8ZM313.2,166.5a66.2,66.2,0,0,1,66.1,66.1v32a32.8,32.8,0,0,1-8.3-3.4V232.5h0a57.8,57.8,0,0,0-115.6,0h0v28.6a32.8,32.8,0,0,1-8.3,3.4v-32A66.2,66.2,0,0,1,313.2,166.5ZM173.4,232.5a66.2,66.2,0,0,1,66.1-66.1h39.6a74.6,74.6,0,0,0-12.6,8.3H238.7a57.9,57.9,0,0,0-57,57.8h0a57.9,57.9,0,0,0,57.2,57.8h.7a57.9,57.9,0,0,0,57.2-57.8h0V204a32.8,32.8,0,0,1,8.3-3.4v32a65.8,65.8,0,1,1-131.5,0Zm115,85.1a74.4,74.4,0,0,0-25.1-14.9,74.4,74.4,0,0,0,25.1-14.9,28.8,28.8,0,0,0,0,29.7ZM239.5,439A66.1,66.1,0,1,1,304.9,373v32a32.8,32.8,0,0,1-8.3-3.4V373h0a57.9,57.9,0,0,0-57.2-57.8h-.7A57.9,57.9,0,0,0,181.7,373h0a57.9,57.9,0,0,0,57,57.8h27.8a74.6,74.6,0,0,0,12.6,8.3Zm73.7,0A66.2,66.2,0,0,1,247.1,373V341a32.8,32.8,0,0,1,8.3,3.4V373h0A57.8,57.8,0,0,0,371,373h0V344.4a32.8,32.8,0,0,1,8.3-3.4v32A66.2,66.2,0,0,1,313.2,439Zm73.7,0H347.2a74.6,74.6,0,0,0,12.6-8.3h27.8a57.9,57.9,0,0,0,57-57.8h0a57.9,57.9,0,0,0-57.2-57.8h-.7A57.9,57.9,0,0,0,329.7,373h0v28.6a32.8,32.8,0,0,1-8.3,3.4V373A65.8,65.8,0,1,1,386.9,439Z" fill="#ed2e53"/><path id="r-middle" d="M313.2,290.4a12.4,12.4,0,1,0,12.4,12.4A12.4,12.4,0,0,0,313.2,290.4Zm0,16.5a4.1,4.1,0,1,1,4.1-4.1A4.1,4.1,0,0,1,313.2,306.9Z" fill="#ed2e53"/></svg>