<svg id="thingy" xmlns="http://www.w3.org/2000/svg" width="630" height="630" viewBox="0 0 630 630"><title>thingy</title><path id="blue-whole" d="M413.1,315A74.5,74.5,0,0,0,463,244.8h0a74.4,74.4,0,0,0-73.5-74.3h-149A74.4,74.4,0,0,0,167,244.8h0A74.5,74.5,0,0,0,216.9,315,74.5,74.5,0,0,0,167,385.2h0a74.4,74.4,0,0,0,73.5,74.3h149A74.4,74.4,0,0,0,463,385.2h0A74.5,74.5,0,0,0,413.1,315ZM388.7,178.7a66.1,66.1,0,1,1-65.4,66.1v-32a32.8,32.8,0,0,1,8.3,3.4v28.6h0a57.9,57.9,0,0,0,57.2,57.8h.7a57.9,57.9,0,0,0,57.2-57.8h0a57.9,57.9,0,0,0-57-57.8H361.7a74.6,74.6,0,0,0-12.6-8.3ZM339.8,300.1A74.4,74.4,0,0,0,364.9,315a74.4,74.4,0,0,0-25.1,14.9,28.8,28.8,0,0,0,0-29.7Zm49.7,126.4h0a41.1,41.1,0,0,0,23.7-8.1h.2v-.2a41.3,41.3,0,0,0,16.5-33h0a41.1,41.1,0,0,0-8.1-24.6v-.2h-.2a41.3,41.3,0,0,0-32.4-16.5h-.7a41.1,41.1,0,0,0-23.9,8.1h-.2v.2a41.3,41.3,0,0,0-16.5,33h0a32.9,32.9,0,0,1-8.3,21.8V385.2h0a49.2,49.2,0,1,1,48.9,49.6H370.4a74.8,74.8,0,0,0,6.4-8.3Zm-7.9-8.3a73.7,73.7,0,0,0,7.1-23.1v23.1Zm35.7-49.6a32.8,32.8,0,0,1,3.4,8.3H389.3v-8.3Zm-27.9-8.3v-8.2a32.9,32.9,0,0,1,21.2,8.2Zm32.4,24.8a32.9,32.9,0,0,1-8.3,21.8V385.2Zm-16.5,0v28.6a32.8,32.8,0,0,1-8.3,3.4v-32Zm-48.9,0h0a32.9,32.9,0,0,1,8.3-21.8v21.8h0a49.6,49.6,0,0,1-99.1,0h0V363.4a32.9,32.9,0,0,1,8.3,21.8h0a41.3,41.3,0,0,0,16.5,33v.2h.2a41.2,41.2,0,0,0,49.1,0h.2v-.2A41.3,41.3,0,0,0,356.3,385.2Zm-115-41.3h-.7a41.3,41.3,0,0,0-32.4,16.5h-.2v.2a41.1,41.1,0,0,0-8.1,24.6h0a41.3,41.3,0,0,0,16.5,33v.2h.2a41.1,41.1,0,0,0,23.7,8.1h12.7a74.8,74.8,0,0,0,6.4,8.3H241.3a49.6,49.6,0,1,1,48.9-49.6h0V407a32.9,32.9,0,0,1-8.3-21.8h0a41.3,41.3,0,0,0-16.5-33V352h-.2A41.1,41.1,0,0,0,241.3,343.9Zm7.1,74.3h-7.1V395.1A73.7,73.7,0,0,0,248.4,418.2Zm-39.1-41.3a32.8,32.8,0,0,1,3.4-8.3h27.9v8.3Zm23.7,8.3v32a32.8,32.8,0,0,1-8.3-3.4V385.2Zm-16.5,0V407a32.9,32.9,0,0,1-8.3-21.8Zm3-24.8a32.9,32.9,0,0,1,21.2-8.2v8.2Zm79.3-21.5a28.8,28.8,0,0,0,32.5,0A74,74,0,0,0,315,385.2,74,74,0,0,0,298.8,338.9Zm16.2-3.3A20.7,20.7,0,1,1,335.7,315,20.7,20.7,0,0,1,315,335.7ZM240.5,203.5h0a41.1,41.1,0,0,0-23.7,8.1h-.2v.2a41.3,41.3,0,0,0-16.5,33h0a41.1,41.1,0,0,0,8.1,24.6v.2h.2a41.3,41.3,0,0,0,32.4,16.5h.7a41.1,41.1,0,0,0,23.9-8.1h.2v-.2a41.3,41.3,0,0,0,16.5-33h0a32.9,32.9,0,0,1,8.3-21.8v21.8h0a49.2,49.2,0,1,1-48.9-49.6h18.3a74.8,74.8,0,0,0-6.4,8.3Zm7.9,8.3a73.7,73.7,0,0,0-7.1,23.1V211.8Zm-35.7,49.6a32.8,32.8,0,0,1-3.4-8.3h31.3v8.3Zm27.9,8.3v8.2a32.9,32.9,0,0,1-21.2-8.2Zm-32.4-24.8a32.9,32.9,0,0,1,8.3-21.8v21.8Zm16.5,0V216.2a32.8,32.8,0,0,1,8.3-3.4v32Zm48.9,0h0a32.9,32.9,0,0,1-8.3,21.8V244.8h0a49.6,49.6,0,0,1,99.1,0h0v21.8a32.9,32.9,0,0,1-8.3-21.8h0a41.3,41.3,0,0,0-16.5-33v-.2h-.2a41.2,41.2,0,0,0-49.1,0h-.2v.2A41.3,41.3,0,0,0,273.7,244.8Zm115,41.3h.7a41.3,41.3,0,0,0,32.4-16.5h.2v-.2a41.1,41.1,0,0,0,8.1-24.6h0a41.3,41.3,0,0,0-16.5-33v-.2h-.2a41.1,41.1,0,0,0-23.7-8.1H376.8a74.9,74.9,0,0,0-6.4-8.3h18.3a49.6,49.6,0,1,1-48.9,49.6h0V223a32.9,32.9,0,0,1,8.3,21.8h0a41.3,41.3,0,0,0,16.5,33v.2h.2A41.1,41.1,0,0,0,388.7,286.1Zm-7.1-74.3h7.1v23.1A73.7,73.7,0,0,0,381.6,211.8Zm39.1,41.3a32.8,32.8,0,0,1-3.4,8.3H389.3v-8.3Zm-23.7-8.3v-32a32.8,32.8,0,0,1,8.3,3.4v28.6Zm16.5,0V223a32.9,32.9,0,0,1,8.3,21.8Zm-3,24.8a32.9,32.9,0,0,1-21.2,8.2v-8.2Zm-79.3,21.5a28.8,28.8,0,0,0-32.5,0A74,74,0,0,0,315,244.8,74,74,0,0,0,331.2,291.1ZM315,178.7a66.2,66.2,0,0,1,66.1,66.1v32a32.8,32.8,0,0,1-8.3-3.4V244.8h0a57.8,57.8,0,0,0-115.6,0h0v28.6a32.8,32.8,0,0,1-8.3,3.4v-32A66.2,66.2,0,0,1,315,178.7ZM175.2,244.8a66.2,66.2,0,0,1,66.1-66.1H281a74.6,74.6,0,0,0-12.6,8.3H240.5a57.9,57.9,0,0,0-57,57.8h0a57.9,57.9,0,0,0,57.2,57.8h.7a57.9,57.9,0,0,0,57.2-57.8h0V216.2a32.8,32.8,0,0,1,8.3-3.4v32a65.8,65.8,0,1,1-131.5,0Zm115,85.1A74.4,74.4,0,0,0,265.1,315a74.4,74.4,0,0,0,25.1-14.9,28.8,28.8,0,0,0,0,29.7ZM241.3,451.3a66.1,66.1,0,1,1,65.4-66.1v32a32.8,32.8,0,0,1-8.3-3.4V385.2h0a57.9,57.9,0,0,0-57.2-57.8h-.7a57.9,57.9,0,0,0-57.2,57.8h0a57.9,57.9,0,0,0,57,57.8h27.8a74.6,74.6,0,0,0,12.6,8.3Zm73.7,0a66.2,66.2,0,0,1-66.1-66.1v-32a32.8,32.8,0,0,1,8.3,3.4v28.6h0a57.8,57.8,0,0,0,115.6,0h0V356.6a32.8,32.8,0,0,1,8.3-3.4v32A66.2,66.2,0,0,1,315,451.3Zm73.7,0H349a74.6,74.6,0,0,0,12.6-8.3h27.8a57.9,57.9,0,0,0,57-57.8h0a57.9,57.9,0,0,0-57.2-57.8h-.7a57.9,57.9,0,0,0-57.2,57.8h0v28.6a32.8,32.8,0,0,1-8.3,3.4v-32a65.8,65.8,0,1,1,65.4,66.1Z" fill="#384a9e"/><path id="blue-middle" d="M315,302.6A12.4,12.4,0,1,0,327.4,315,12.4,12.4,0,0,0,315,302.6Zm0,16.5a4.1,4.1,0,1,1,4.1-4.1A4.1,4.1,0,0,1,315,319.1Z" fill="#384a9e"/><path id="red-whole" d="M413.1,315A74.5,74.5,0,0,0,463,244.8h0a74.4,74.4,0,0,0-73.5-74.3h-149A74.4,74.4,0,0,0,167,244.8h0A74.5,74.5,0,0,0,216.9,315,74.5,74.5,0,0,0,167,385.2h0a74.4,74.4,0,0,0,73.5,74.3h149A74.4,74.4,0,0,0,463,385.2h0A74.5,74.5,0,0,0,413.1,315ZM388.7,178.7a66.1,66.1,0,1,1-65.4,66.1v-32a32.8,32.8,0,0,1,8.3,3.4v28.6h0a57.9,57.9,0,0,0,57.2,57.8h.7a57.9,57.9,0,0,0,57.2-57.8h0a57.9,57.9,0,0,0-57-57.8H361.7a74.6,74.6,0,0,0-12.6-8.3ZM339.8,300.1A74.4,74.4,0,0,0,364.9,315a74.4,74.4,0,0,0-25.1,14.9,28.8,28.8,0,0,0,0-29.7Zm49.7,126.4h0a41.1,41.1,0,0,0,23.7-8.1h.2v-.2a41.3,41.3,0,0,0,16.5-33h0a41.1,41.1,0,0,0-8.1-24.6v-.2h-.2a41.3,41.3,0,0,0-32.4-16.5h-.7a41.1,41.1,0,0,0-23.9,8.1h-.2v.2a41.3,41.3,0,0,0-16.5,33h0a32.9,32.9,0,0,1-8.3,21.8V385.2h0a49.2,49.2,0,1,1,48.9,49.6H370.4a74.8,74.8,0,0,0,6.4-8.3Zm-7.9-8.3a73.7,73.7,0,0,0,7.1-23.1v23.1Zm35.7-49.6a32.8,32.8,0,0,1,3.4,8.3H389.3v-8.3Zm-27.9-8.3v-8.2a32.9,32.9,0,0,1,21.2,8.2Zm32.4,24.8a32.9,32.9,0,0,1-8.3,21.8V385.2Zm-16.5,0v28.6a32.8,32.8,0,0,1-8.3,3.4v-32Zm-48.9,0h0a32.9,32.9,0,0,1,8.3-21.8v21.8h0a49.6,49.6,0,0,1-99.1,0h0V363.4a32.9,32.9,0,0,1,8.3,21.8h0a41.3,41.3,0,0,0,16.5,33v.2h.2a41.2,41.2,0,0,0,49.1,0h.2v-.2A41.3,41.3,0,0,0,356.3,385.2Zm-115-41.3h-.7a41.3,41.3,0,0,0-32.4,16.5h-.2v.2a41.1,41.1,0,0,0-8.1,24.6h0a41.3,41.3,0,0,0,16.5,33v.2h.2a41.1,41.1,0,0,0,23.7,8.1h12.7a74.8,74.8,0,0,0,6.4,8.3H241.3a49.6,49.6,0,1,1,48.9-49.6h0V407a32.9,32.9,0,0,1-8.3-21.8h0a41.3,41.3,0,0,0-16.5-33V352h-.2A41.1,41.1,0,0,0,241.3,343.9Zm7.1,74.3h-7.1V395.1A73.7,73.7,0,0,0,248.4,418.2Zm-39.1-41.3a32.8,32.8,0,0,1,3.4-8.3h27.9v8.3Zm23.7,8.3v32a32.8,32.8,0,0,1-8.3-3.4V385.2Zm-16.5,0V407a32.9,32.9,0,0,1-8.3-21.8Zm3-24.8a32.9,32.9,0,0,1,21.2-8.2v8.2Zm79.3-21.5a28.8,28.8,0,0,0,32.5,0A74,74,0,0,0,315,385.2,74,74,0,0,0,298.8,338.9Zm16.2-3.3A20.7,20.7,0,1,1,335.7,315,20.7,20.7,0,0,1,315,335.7ZM240.5,203.5h0a41.1,41.1,0,0,0-23.7,8.1h-.2v.2a41.3,41.3,0,0,0-16.5,33h0a41.1,41.1,0,0,0,8.1,24.6v.2h.2a41.3,41.3,0,0,0,32.4,16.5h.7a41.1,41.1,0,0,0,23.9-8.1h.2v-.2a41.3,41.3,0,0,0,16.5-33h0a32.9,32.9,0,0,1,8.3-21.8v21.8h0a49.2,49.2,0,1,1-48.9-49.6h18.3a74.8,74.8,0,0,0-6.4,8.3Zm7.9,8.3a73.7,73.7,0,0,0-7.1,23.1V211.8Zm-35.7,49.6a32.8,32.8,0,0,1-3.4-8.3h31.3v8.3Zm27.9,8.3v8.2a32.9,32.9,0,0,1-21.2-8.2Zm-32.4-24.8a32.9,32.9,0,0,1,8.3-21.8v21.8Zm16.5,0V216.2a32.8,32.8,0,0,1,8.3-3.4v32Zm48.9,0h0a32.9,32.9,0,0,1-8.3,21.8V244.8h0a49.6,49.6,0,0,1,99.1,0h0v21.8a32.9,32.9,0,0,1-8.3-21.8h0a41.3,41.3,0,0,0-16.5-33v-.2h-.2a41.2,41.2,0,0,0-49.1,0h-.2v.2A41.3,41.3,0,0,0,273.7,244.8Zm115,41.3h.7a41.3,41.3,0,0,0,32.4-16.5h.2v-.2a41.1,41.1,0,0,0,8.1-24.6h0a41.3,41.3,0,0,0-16.5-33v-.2h-.2a41.1,41.1,0,0,0-23.7-8.1H376.8a74.8,74.8,0,0,0-6.4-8.3h18.3a49.6,49.6,0,1,1-48.9,49.6h0V223a32.9,32.9,0,0,1,8.3,21.8h0a41.3,41.3,0,0,0,16.5,33v.2h.2A41.1,41.1,0,0,0,388.7,286.1Zm-7.1-74.3h7.1v23.1A73.7,73.7,0,0,0,381.6,211.8Zm39.1,41.3a32.8,32.8,0,0,1-3.4,8.3H389.3v-8.3Zm-23.7-8.3v-32a32.8,32.8,0,0,1,8.3,3.4v28.6Zm16.5,0V223a32.9,32.9,0,0,1,8.3,21.8Zm-3,24.8a32.9,32.9,0,0,1-21.2,8.2v-8.2Zm-79.3,21.5a28.8,28.8,0,0,0-32.5,0A74,74,0,0,0,315,244.8,74,74,0,0,0,331.2,291.1ZM315,178.7a66.2,66.2,0,0,1,66.1,66.1v32a32.8,32.8,0,0,1-8.3-3.4V244.8h0a57.8,57.8,0,0,0-115.6,0h0v28.6a32.8,32.8,0,0,1-8.3,3.4v-32A66.2,66.2,0,0,1,315,178.7ZM175.2,244.8a66.2,66.2,0,0,1,66.1-66.1H281a74.6,74.6,0,0,0-12.6,8.3H240.5a57.9,57.9,0,0,0-57,57.8h0a57.9,57.9,0,0,0,57.2,57.8h.7a57.9,57.9,0,0,0,57.2-57.8h0V216.2a32.8,32.8,0,0,1,8.3-3.4v32a65.8,65.8,0,1,1-131.5,0Zm115,85.1A74.4,74.4,0,0,0,265.1,315a74.4,74.4,0,0,0,25.1-14.9,28.8,28.8,0,0,0,0,29.7ZM241.3,451.3a66.1,66.1,0,1,1,65.4-66.1v32a32.8,32.8,0,0,1-8.3-3.4V385.2h0a57.9,57.9,0,0,0-57.2-57.8h-.7a57.9,57.9,0,0,0-57.2,57.8h0a57.9,57.9,0,0,0,57,57.8h27.8a74.6,74.6,0,0,0,12.6,8.3Zm73.7,0a66.2,66.2,0,0,1-66.1-66.1v-32a32.8,32.8,0,0,1,8.3,3.4v28.6h0a57.8,57.8,0,0,0,115.6,0h0V356.6a32.8,32.8,0,0,1,8.3-3.4v32A66.2,66.2,0,0,1,315,451.3Zm73.7,0H349a74.6,74.6,0,0,0,12.6-8.3h27.8a57.9,57.9,0,0,0,57-57.8h0a57.9,57.9,0,0,0-57.2-57.8h-.7a57.9,57.9,0,0,0-57.2,57.8h0v28.6a32.8,32.8,0,0,1-8.3,3.4v-32a65.8,65.8,0,1,1,65.4,66.1Z" fill="#ed2e53"/><path id="r-middle" d="M315,302.6A12.4,12.4,0,1,0,327.4,315,12.4,12.4,0,0,0,315,302.6Zm0,16.5a4.1,4.1,0,1,1,4.1-4.1A4.1,4.1,0,0,1,315,319.1Z" fill="#ed2e53"/></svg>